<?xml version="1.0" encoding="UTF-8"?><!DOCTYPE svg PUBLIC "-//W3C//DTD SVG 1.1//EN" "http://www.w3.org/Graphics/SVG/1.1/DTD/svg11.dtd"><svg xmlns="http://www.w3.org/2000/svg" xmlns:xlink="http://www.w3.org/1999/xlink"><symbol id="logo" viewBox="0 0 1761 433">
    <title>Group</title>
    <g id="Page-1" stroke="none" stroke-width="1" fill="none" fill-rule="evenodd">
        <g id="Group" transform="translate(0.000000, -0.000000)" fill="currentColor" fill-rule="nonzero">
            <path d="M1267.92217,191.883301 C1279.72165,191.883301 1288.12237,195.121745 1293.12432,201.598633 C1295.49704,204.676758 1296.6834,208.267904 1296.6834,212.37207 C1296.6834,221.927083 1290.71954,229.558268 1278.7918,235.265625 C1287.32077,241.357747 1296.36277,250.848633 1305.91778,263.738281 C1308.61114,259.890625 1311.6572,254.824544 1315.05596,248.540039 C1319.22426,240.716471 1321.3084,235.490072 1321.3084,232.86084 C1321.3084,230.663133 1318.41868,229.541387 1312.63924,229.495602 L1312.26641,229.494141 L1309.86163,229.494141 L1309.86163,221.991211 L1348.91534,221.991211 L1348.91534,229.494141 L1345.74102,229.494141 L1345.24399,229.497409 C1339.98847,229.567131 1336.2103,230.752402 1333.90948,233.053223 C1332.79016,234.172541 1330.97739,236.980258 1328.47117,241.476375 L1328.23418,241.902832 L1319.67315,257.101074 L1319.17082,258.00272 C1316.32426,263.073353 1313.47771,267.486183 1310.63116,271.241211 C1312.93975,275.473633 1316.72328,281.661947 1321.98174,289.806152 C1325.38051,294.551595 1328.97165,296.924316 1332.75518,296.924316 C1336.3546,296.924316 1339.89396,295.302775 1343.37327,292.059694 L1343.721,291.72998 L1347.47247,298.848144 L1347.0511,299.23981 C1339.43732,306.225119 1330.24721,309.717773 1319.48077,309.717773 C1313.5169,309.717773 1308.54701,308.33903 1304.5711,305.581543 C1301.17234,303.208822 1297.16436,298.591634 1292.54717,291.72998 C1285.42901,299.104655 1276.83591,304.331055 1266.76788,307.40918 C1261.83005,308.948242 1257.08461,309.717773 1252.53155,309.717773 C1242.78415,309.717773 1234.60788,306.575521 1228.00274,300.291016 C1221.3976,294.00651 1218.09502,285.99056 1218.09502,276.243164 C1218.09502,261.878581 1228.64402,250.367676 1249.742,241.710449 C1240.05873,232.732585 1235.21709,224.075358 1235.21709,215.738769 C1235.21709,207.786947 1238.8403,201.66276 1246.08672,197.366211 C1252.17885,193.710937 1259.45733,191.883301 1267.92217,191.883301 Z M958.113281,123.282227 C970.691406,123.282227 985.958333,125.560873 1003.91406,130.118164 C1011.57031,132.123373 1016.53776,133.125977 1018.81641,133.125977 C1022.42452,133.125977 1025.18296,131.978905 1027.09171,129.684761 L1027.29297,129.43457 L1034.26562,129.43457 L1034.26562,180.704101 L1023.05469,180.704101 L1022.87853,180.044607 C1017.70744,160.987348 1007.1021,147.854315 991.0625,140.645508 C983.132812,137.09082 974.473958,135.313476 965.085937,135.313476 C937.833333,135.313476 918.282552,147.618164 906.433594,172.227539 C900.782552,183.985351 897.957031,197.292643 897.957031,212.149414 C897.957031,234.935872 904.360026,253.962565 917.166016,269.229492 C929.972005,284.496419 946.127604,292.129883 965.632812,292.129883 C977.224185,292.129883 987.027423,289.818393 995.042528,285.195412 L995.574219,284.883789 L995.574219,246.192383 L995.571306,245.786854 C995.447046,237.189418 991.346454,232.038136 983.269531,230.333008 C978.815814,229.442264 971.66355,228.856196 961.812738,228.574802 L961.121094,228.555664 L961.121094,218.02832 L1054.08984,218.02832 L1054.08984,228.555664 L1053.53248,228.565451 C1046.89568,228.711657 1042.11402,229.893291 1039.1875,232.110351 C1035.98628,234.778034 1034.34663,239.310927 1034.26855,245.709028 L1034.26562,246.192383 L1034.26562,288.02832 L1033.14503,288.535825 C1007.76494,299.955301 983.756963,305.665039 961.121094,305.665039 C915.365885,305.665039 884.285156,290.717122 867.878906,260.821289 C860.040365,246.693685 856.121094,230.560872 856.121094,212.422851 C856.121094,186.537435 865.759766,165.20931 885.037109,148.438476 C904.314453,131.667643 928.673177,123.282227 958.113281,123.282227 Z M1526.59297,123.282227 C1538.9888,123.282227 1550.19974,124.922852 1560.22578,128.204102 C1573.16849,132.579102 1579.86771,134.766601 1580.32344,134.766601 C1582.41151,134.766601 1584.20891,133.93612 1585.71564,132.275157 L1585.92891,132.032227 L1592.90156,132.032227 L1595.49922,180.977539 L1584.56172,180.977539 L1584.33909,180.301507 C1578.20174,161.894891 1567.79418,149.359818 1553.11641,142.696289 C1545.64245,139.323893 1537.53047,137.637695 1528.78047,137.637695 C1508.81953,137.637695 1492.59557,144.519206 1480.10859,158.282227 C1467.43932,172.318685 1461.10469,190.274414 1461.10469,212.149414 C1461.10469,226.277018 1464.02135,239.356445 1469.85469,251.387695 C1476.0526,264.148112 1484.8026,274.128581 1496.10469,281.329101 C1506.95104,288.347331 1518.89115,291.856445 1531.925,291.856445 C1545.14115,291.856445 1556.94453,288.119466 1567.33516,280.645508 C1576.97801,273.681222 1584.56548,264.224225 1590.09755,252.274516 L1590.44062,251.524414 L1601.65156,251.524414 L1601.46915,252.701053 C1598.85426,269.177104 1593.67418,285.783589 1585.92891,302.520508 C1581.7362,301.244466 1576.22187,300.606445 1569.38594,300.606445 C1565.9224,300.606445 1558.79023,301.449544 1547.98945,303.135742 C1537.18867,304.82194 1528.27917,305.665039 1521.26094,305.665039 C1503.21406,305.665039 1486.53437,301.92806 1471.22187,294.454101 C1455.08906,286.61556 1442.28307,275.450195 1432.80391,260.958008 C1423.78047,247.103841 1419.26875,231.836914 1419.26875,215.157226 C1419.26875,189.545247 1429.63659,167.829753 1450.37227,150.010742 C1471.10794,132.191732 1496.51484,123.282227 1526.59297,123.282227 Z M656.511719,123.282227 C665.717448,123.282227 673.966146,124.239258 681.257812,126.15332 C687.466947,127.819186 692.054484,129.023735 695.020423,129.766967 L695.499732,129.886568 C697.202142,130.309441 698.298955,130.560033 698.790172,130.638343 L698.909125,130.655428 C698.961095,130.661836 699.001803,130.665039 699.03125,130.665039 C701.036458,130.665039 702.99997,129.706027 704.921786,127.788001 L705.183594,127.520508 L711.0625,127.520508 L716.394531,172.911133 L705.183594,172.911133 L704.997979,172.224572 C702.037955,161.511218 696.631076,152.80778 688.777344,146.114258 C680.391927,138.913737 670.639323,135.313476 659.519531,135.313476 C652.77474,135.313476 646.804687,136.817383 641.609375,139.825195 C635.320312,143.471029 632.175781,148.438476 632.175781,154.727539 C632.175781,162.748372 637.234375,170.131185 647.351562,176.875976 C655.828125,181.433268 664.35026,185.99056 672.917969,190.547851 C689.324219,199.571289 701.674479,208.230143 709.96875,216.524414 C720.632812,227.188476 725.964844,239.538737 725.964844,253.575195 C725.964844,273.718424 716.029948,288.757487 696.160156,298.692383 C686.863281,303.34082 676.882812,305.665039 666.21875,305.665039 C659.65625,305.665039 650.610026,304.161133 639.080078,301.15332 C637.15842,300.652018 635.365252,300.192491 633.700575,299.77474 L632.717187,299.529101 C624.973437,297.604101 620.190104,296.641601 618.367187,296.641601 C615.812066,296.641601 613.895725,298.046918 612.618164,300.857552 L612.488281,301.15332 L605.242187,301.15332 L598.269531,250.157226 L609.207031,250.157226 L609.485227,250.992482 C618.732445,278.417416 634.590234,292.129883 657.058594,292.129883 C669.81901,292.129883 679.252604,287.663737 685.359375,278.731445 C688.09375,274.629883 689.460937,269.981445 689.460937,264.786133 C689.460937,255.124674 684.265625,246.374674 673.875,238.536133 C672.149373,237.23139 669.209044,235.382462 665.054015,232.989347 L664.587346,232.721206 L663.796921,232.269798 C662.988315,231.809686 662.138558,231.331138 661.24765,230.834154 L660.158808,230.228925 C656.093962,227.977304 651.232432,225.368769 645.574219,222.40332 C630.717448,214.74707 620.235677,207.956706 614.128906,202.032226 C604.467448,192.735351 599.636719,181.706706 599.636719,168.946289 C599.636719,158.555664 602.872396,149.577799 609.34375,142.012695 C615.359375,134.90332 623.471354,129.753581 633.679687,126.563477 C640.606771,124.375977 648.217448,123.282227 656.511719,123.282227 Z M1694.62031,184.395508 C1713.85208,184.395508 1729.66589,189.818685 1742.06172,200.665039 C1754.45755,211.511393 1760.65547,225.502279 1760.65547,242.637695 C1760.65547,267.064779 1749.21667,285.066081 1726.33906,296.641601 C1715.675,302.110351 1703.68932,304.844726 1690.38203,304.844726 C1663.85859,304.844726 1644.6724,295.36556 1632.82344,276.407226 C1627.1724,267.474935 1624.34687,257.40332 1624.34687,246.192383 C1624.34687,221.947591 1635.83125,204.037435 1658.8,192.461914 C1669.46406,187.08431 1681.40417,184.395508 1694.62031,184.395508 Z M1155.94531,127.520508 L1155.94531,138.458008 L1151.29687,138.458008 L1150.87245,138.460113 C1137.07885,138.597656 1130.11168,145.474103 1129.97093,159.089453 L1129.96875,159.512695 L1129.96875,270.391601 L1129.97143,270.903873 C1130.04836,278.195822 1131.77924,283.311523 1135.16406,286.250976 C1138.54313,289.185428 1143.91753,290.688439 1151.28728,290.760011 L1151.84375,290.762695 L1155.94531,290.762695 L1155.94531,301.700195 L1066.94141,301.700195 L1066.94141,290.762695 L1070.90625,290.762695 L1071.33286,290.760559 C1084.48773,290.628128 1091.13514,284.337626 1091.27509,271.889054 L1091.27734,271.485351 L1091.27734,159.512695 L1091.27483,158.98841 C1091.20444,151.697581 1089.6558,146.471952 1086.62891,143.311523 C1083.60038,140.149384 1078.43913,138.532382 1071.14515,138.460515 L1070.63281,138.458008 L1066.94141,138.458008 L1066.94141,127.520508 L1155.94531,127.520508 Z M835.066406,127.520508 L835.066406,138.458008 L830.417969,138.458008 L829.993539,138.460113 C816.199944,138.597656 809.232771,145.474103 809.09202,159.089453 L809.089844,159.512695 L809.089844,270.391601 L809.092527,270.903873 C809.169455,278.195822 810.900331,283.311523 814.285156,286.250976 C817.664221,289.185428 823.038626,290.688439 830.408372,290.760011 L830.964844,290.762695 L835.066406,290.762695 L835.066406,301.700195 L746.0625,301.700195 L746.0625,290.762695 L750.027344,290.762695 L750.453952,290.760559 C763.608825,290.628128 770.256235,284.337626 770.39618,271.889054 L770.398437,271.485351 L770.398437,159.512695 L770.395923,158.98841 C770.325531,151.697581 768.77689,146.471952 765.75,143.311523 C762.721473,140.149384 757.560222,138.532382 750.266248,138.460515 L749.753906,138.458008 L746.0625,138.458008 L746.0625,127.520508 L835.066406,127.520508 Z M1256.28301,246.616211 C1246.98451,252.323568 1242.33526,259.634115 1242.33526,268.547851 C1242.33526,278.551758 1246.24704,286.279134 1254.07061,291.72998 C1257.59763,294.230957 1261.41322,295.481445 1265.51739,295.481445 C1272.57142,295.481445 1280.13848,291.665853 1288.21856,284.034668 C1282.12644,272.619954 1271.48125,260.147135 1256.28301,246.616211 Z M1687.37422,196.426758 C1669.96536,196.426758 1661.26094,207.546549 1661.26094,229.786133 C1661.26094,244.187174 1663.90417,257.40332 1669.19062,269.43457 C1676.11771,284.929362 1685.82474,292.676758 1698.31172,292.676758 C1715.26484,292.676758 1723.74141,281.14681 1723.74141,258.086914 C1723.74141,239.857747 1720.36901,225.023763 1713.62422,213.584961 C1706.87943,202.146159 1698.12943,196.426758 1687.37422,196.426758 Z M1267.34502,199.38623 C1260.22686,199.38623 1256.66778,202.913249 1256.66778,209.967285 C1256.66778,214.007324 1258.3351,217.919108 1261.66973,221.702637 C1263.27292,223.49821 1266.60756,226.416016 1271.67364,230.456055 C1277.31687,225.197591 1280.13848,219.426107 1280.13848,213.141601 C1280.13848,209.101562 1279.00022,205.798991 1276.72369,203.233887 C1274.44716,200.668782 1271.32094,199.38623 1267.34502,199.38623 Z"/>
            <path d="M301.068179,0 C301.090485,0 301.112382,0 301.133905,0 L301.197386,0.00925849249 C302.123402,0.11700831 302.376842,1.38421053 305,14.5 C307.7,28 313.4,47.3 318.2,59.3 C320.6,65.1 321.8,69.6 321.3,70.1 C320.8,70.6 317.7,69.6 314,67.5 C310.4,65.6 306.9,64 306.3,64 C305.33,64 305.01863,77.54896 305.000821,128.102576 L305.00009,131.277004 L305.00009,131.277004 L305,132.9 L305,201.9 L308.5,201.3 C312.4,200.7 314.7,202 316.2,205.9 C317.046,208.156 319.30576,206.17072 359.608034,165.890216 L362.232538,163.266784 C362.678683,162.820768 363.129222,162.370336 363.584199,161.915447 L370.199198,155.300194 C408.7876,116.6918 418.176,106.784 417,106 C416.2,105.4 412.5,104 408.8,102.9 C405,101.7 402,100.4 402,99.8 C402,99.3 404.4,97.9 407.3,96.7 C422.2,90.6 442.9,79.2 458.2,68.9 L458.467601,68.7191309 C467.21929,62.8208 468.139,63.89 462.1,72.8 C451.8,88.1 440.4,108.8 434.3,123.7 C433.1,126.6 431.7,129 431.2,129 C430.6,129 429.3,126 428.1,122.2 C427,118.5 425.6,114.8 425,114 C424.2,112.8 414,122.6 373.6,162.9 L373.6,162.9 L323.2,213.3 L326.6,215.7 L330.1,218 L373.006688,217.999198 C394.52962,217.982 412.527,217.691 413.4,217.4 C414.748148,216.918519 414.983539,214.767901 414.999126,203.715226 L414.999907,202.84734 L414.999907,202.84734 L415,202.4 C415,202.25 414.999973,202.101528 414.999917,201.954567 L414.999223,201.090815 C414.985354,190.094482 414.775398,188.098042 413.548661,187.416816 L413.452278,187.366879 C413.403069,187.343077 413.352326,187.32093 413.3,187.3 C410.4,186.2 410,184.9 410,176.2 L410,176.2 L410,168 L441,168 L440.999728,177.392773 C440.989328,184.751427 440.675862,186.208621 439.3,186.7 C438.3,187.1 437.2,187.8 436.8,188.4 C436.201124,189.275281 435.963022,195.095304 436.007485,201.24558 L436.015999,202.147442 C436.096604,209.071582 436.52809,216.12809 437.2,216.8 C438.8,218.4 456.2,218.4 457.8,216.8 C458.47191,216.12809 458.903396,209.071582 458.984001,202.147442 L458.992515,201.24558 C459.036978,195.095304 458.798876,189.275281 458.2,188.4 C457.8,187.8 456.7,187.1 455.8,186.7 C454.3,186.2 454,184.7 454,177 L454,177 L454,168 L485,168 L484.999699,176.606962 C484.98689,185.037476 484.554688,186.217187 481.7,187.3 C480.495506,187.751685 480.141093,188.656748 480.124804,194.793476 L480.124603,195.649709 C480.128279,197.525552 480.157303,199.839326 480.2,202.7 L480.2,202.7 L480.5,217.5 L484.8,217.8 C490.4,218.2 491.8,216.9 492.2,211.2 L492.2,211.2 L492.5,206.5 L503.3,206.2 L514,205.9 L514,252.1 L503.3,251.8 L492.5,251.5 L491.5,242.5 L485.8,242.2 L480,241.9 L480.0008,257.283231 C480.015862,268.611696 480.256471,270.121176 481.8,270.7 C484.6,271.8 485,273.1 485,281.7 L485,281.7 L485,290 L454,290 L454.000865,279.541866 C454.013989,272.033936 454.203125,271.357812 456.3,270.5 C458.4,269.6 458.5,268.8 458.8,258 C459.2,240.8 460,241.9 447.2,242.2 L447.2,242.2 L436.5,242.5 L436.500788,257.678241 C436.513231,269.045954 436.698876,269.544944 438.8,270.5 C440.801562,271.357812 440.98623,272.033936 440.999145,279.541866 L440.99992,280.30263 L440.99992,280.30263 L441,280.7 L441,290 L410,290 L410.000855,279.847561 C410.01413,272.262012 410.210769,271.858462 412.5,271 L412.5,271 L415,270 L415,242 L330.8,242 L327.5,244.9 L324.2,247.7 L358.4,281.9 L392.5,316 L409.5,316 L430.7,337.2 C442.4,348.9 452,359.1 452,359.9 C452,361 450.4,361.1 443.4,360.5 C435.9,359.9 434.6,360 432.8,361.6 C431,363.3 430.9,364.2 431.5,372.2 C432.1,379.3 431.9,381 430.9,381 C430.1,381 420,371.4 408.3,359.8 L408.3,359.8 L387,338.5 L387,321.5 L351.4,286 C331.8,266.5 316.1,251.1 316.5,251.8 C316.9,252.5 316.6,254.4 316,256.1 C314.7,259.2 311.6,260.5 307.5,259.8 L307.5,259.8 L305,259.3 L305,359.6 L311,365.5 L317,371.5 L316.8,401.9 C316.6,423.4 316.2,432.4 315.4,432.7 C314.8,432.9 311.9,430.1 309.1,426.5 C302.1,417.6 300.1,417.6 293.1,426.5 C290.3,430.1 287.5,433 287,433 C286.412,433 286.01608,421.9554 286.000478,402.878014 L286,370.4 L291.5,365 L297,359.6 L297,258.2 L294.2,259.2 C290,260.8 286.1,259.5 284.6,256 L284.6,256 L283.4,253.1 L215,321.5 L215,338.5 L193.8,359.7 C182.1,371.4 171.9,381 171.2,381 C170.1,381 169.9,379.3 170.5,372.2 C171.1,364.2 171,363.3 169.2,361.6 C167.4,360 166.1,359.9 158.6,360.5 C151.7,361.1 150,361 150,359.9 C150,359.1 159.6,349 171.2,337.3 L171.2,337.3 L192.5,316 L209.5,316 L244,281.5 C265,260.5 277.8,247 276.7,247 C275.7,247 273.8,245.9 272.4,244.5 L272.4,244.5 L269.9,242 L204,242 L204,245.4 C204,250.8 201.1,264.7 197.8,275 C191.8,293.9 182.5,309.7 170.1,322 C157.9,334.1 146.8,340.5 132.2,343.5 C97.7,350.9 63.5,329.4 45.4,289.1 C43,283.8 41,278.9 41,278.2 C41,277.4 39.1,277 35,277 L29,277 L29,267 L38,267 L38,250 L31.7,250 C24,250 17,248 10.9,244.2 C6.2,241.2 0,233 0,229.8 C0,226.7 5.7,219.3 10.5,216 C16.5,211.9 22,210.1 30.7,209.3 L30.7,209.3 L38,208.7 L38,192 L29,192 L29,183 L34.6,183 C40,183 40.2,182.9 41.3,179.7 C41.8076923,178.261538 44.1769231,173.243195 46.7719618,167.916431 L47.1270767,167.18845 C47.483284,166.459172 47.8423077,165.726923 48.2,165 C65.7,129.9 95.5,111.1 127,115.1 C165.3,119.9 196.5,158.2 203.4,209 L203.4,209 L204.6,217.5 L238,217.8 C243.64,217.84 248.364,217.864 252.3184,217.8672 L254.046426,217.86722 C268.39466,217.8551 271.661,217.524 272.2,216.6 C272.7,215.8 274.4,214.8 276.1,214.5 C279.076,213.849 278.93836,213.45747 238.686658,173.187996 L234.664864,169.165114 C234.203808,168.703995 233.737976,168.238116 233.267322,167.767427 L230.385166,164.88517 L230.385166,164.88517 L228.9,163.4 C228.514,163.014 228.13066,162.63071 227.749964,162.250115 L225.497399,159.998773 C189.5899,124.12116 178.27,113.327 177.3,114.2 C176.6,114.7 175.1,118.3 174,122.1 C172.8,125.9 171.4,129 170.9,129 C170.3,129 169.1,127.1 168.2,124.7 C166.417241,119.891954 161.570075,110.151671 156.323043,100.429839 L155.651243,99.1892354 C155.538982,98.9826121 155.426592,98.7760924 155.314098,98.5697242 L154.638091,97.3337131 C150.689827,90.1386973 146.677011,83.245977 143.7,78.7 C133,62.3 133.2,61.9 147.7,71.4 C161.1,80.2 175.6,88.2 188.6,93.9 C194.5,96.6 199.6,99.2 199.8,99.8 C199.9,100.3 197,101.7 193.3,102.9 C189.6,104 185.8,105.4 185,106 C183.824,106.784 193.11636,116.59576 231.136205,154.635597 L233.5,157 C275,198.5 283.6,206.7 284.3,205.2 C286.6,200.9 291.8,199.6 295.2,202.7 C296.815,204.22 296.986,202.3105 296.999062,143.899987 L296.999182,129.314455 C296.98146,77.83123 296.673,64 295.8,64 C295.1,64 291.6,65.6 288,67.5 C284.5,69.4 281.2,70.6 280.8,70.2 C280.3,69.7 281.8,64.7 284,59 C289,46.4 294,29.5 297.4,13.2 C298.8,6.5 300,0.8 300,0.5 C300,0.2 300.4,0 301,0 L301,0 L301.068179,0 Z M134.5,143.1 C107.9,134.9 80.8,146.8 68,172.4 C65.8,176.7 64,180.9 64,181.6 C64,182.6 65.3,183 68,183 L68,183 L72,183 L72,192 L62,192 L62,196.2 C62,204.4 64.2,213 68.5,221.6 L68.5,221.6 L72.8,230.2 L69.9,234.8 C66,241 63,250.8 62.3,259.7 L62.3,259.7 L61.7,267 L72,267 L72,277 L67.6529665,277.000329 C64.1868285,277.010021 63.9136364,277.245455 64.5,279.2 C67.5,289.8 78.1,303.7 88.1,310.1 C120.4,330.8 163.8,312.9 172.6,275.3 C174.6,266.9 174,253.9 171.4,246 L171.4,246 L169.5,240.5 L154.3,240.2 L139,239.9 L139,275 L118,275 L118,240 L88,240 L88,219 L103,219 L118,219 L118,189 L139,189 L139,219.1 L169.4,218.5 L171.3,213.5 C174,206.2 174.7,192.1 172.6,184 C167.7,164.7 152.9,148.8 134.5,143.1 Z"/>
        </g>
    </g>
</symbol></svg>